<?xml version="1.0" encoding="UTF-8"?>
<!DOCTYPE svg PUBLIC "-//W3C//DTD SVG 1.1//EN" "http://www.w3.org/Graphics/SVG/1.1/DTD/svg11.dtd">
<!-- Creator: CorelDRAW 2020 (64-Bit) -->
<svg xmlns="http://www.w3.org/2000/svg" xml:space="preserve" width="746px" height="748px" version="1.1" style="shape-rendering:geometricPrecision; text-rendering:geometricPrecision; image-rendering:optimizeQuality; fill-rule:evenodd; clip-rule:evenodd"
viewBox="0 0 747.768 749.47"
 xmlns:xlink="http://www.w3.org/1999/xlink"
 xmlns:xodm="http://www.corel.com/coreldraw/odm/2003">
 <defs>
  <style type="text/css">
   <![CDATA[
    .str0 {stroke:#22523A;stroke-width:8.017;stroke-miterlimit:22.9256}
    .fil3 {fill:#009B4C}
    .fil2 {fill:#0C7E4C}
    .fil1 {fill:#22523A}
    .fil0 {fill:#E0FFEF}
   ]]>
  </style>
 </defs>
 <g id="Layer_x0020_1">
  <metadata id="CorelCorpID_0Corel-Layer"/>
  <ellipse class="fil0 str0" cx="373.884" cy="374.735" rx="369.875" ry="370.727"/>
  <g id="_2511715819360">
   <path class="fil1" d="M372.102 592.646l-98.965 0 -48.469 0c-30.013,25.599 0,0 -45.611,39.093l218.182 0.048 0.006 -0.003 0.646 0.003c120.237,0 217.709,-97.123 217.709,-216.932 0,-52.557 -18.76,-100.746 -49.969,-138.289l-0.329 -0.065c15.261,29.701 23.877,63.378 23.877,99.068 0,119.89 -97.188,217.077 -217.077,217.077z"/>
   <path class="fil2" d="M372.102 513.478l0 0.001c-41.721,0.015 -138.56,0 -180.281,0 -40.383,79.167 -40.062,79.167 -60.15,118.308 39.19,-39.141 38.372,-39.141 81.967,-79.179 42.459,0 107.32,0 158.464,0 97.777,0 177.038,-79.262 177.038,-177.039 0,-36.705 -11.169,-70.801 -30.296,-99.074 -5.864,19.649 -8.683,25.926 -22.318,39.542 8.64,18.021 13.486,38.209 13.486,59.532 0,76.166 -61.744,137.909 -137.91,137.909z"/>
   <path class="fil3" d="M460.56 316.031c31.792,-0.632 41.305,-12.643 58.284,-39.537l-141.533 -0.058 -0.051 0.025 -4.348 0.008c-31.792,0.632 -59.895,13.908 -79.193,39.537l59.931 0.025 29.155 0.065 -65.292 118.396 46.953 0 65.292 -118.444 30.802 -0.017z"/>
   <path class="fil1" d="M375.169 157.918l98.965 0 48.469 0c30.014,-25.599 0,0 45.611,-39.093l-218.182 -0.048 -0.006 0.002 -0.645 -0.002c-120.238,0 -217.71,97.123 -217.71,216.932 0,52.556 18.76,100.746 49.969,138.288l0.329 0.066c-15.261,-29.701 -23.877,-63.378 -23.877,-99.068 0,-119.89 97.188,-217.077 217.077,-217.077z"/>
   <path class="fil2" d="M375.169 237.086l0 -0.002c41.721,-0.014 138.56,0 180.281,0 40.383,-79.166 40.062,-79.166 60.15,-118.307 -39.19,39.141 -38.372,39.141 -81.966,79.179 -42.46,0 -107.321,0 -158.465,0 -97.777,0 -177.038,79.262 -177.038,177.039 0,36.705 11.169,70.801 30.296,99.074 5.865,-19.65 8.683,-25.927 22.318,-39.543 -8.64,-18.02 -13.486,-38.208 -13.486,-59.531 0,-76.167 61.744,-137.909 137.91,-137.909z"/>
   <path class="fil3" d="M286.711 434.533c-31.792,0.632 -41.305,12.643 -58.284,39.537l141.533 0.057 0.051 -0.024 4.348 -0.008c31.792,-0.632 59.895,-13.909 79.193,-39.537l-59.931 -0.025 -29.155 -0.066 65.292 -118.395 -46.953 0 -65.292 118.443 -30.802 0.018z"/>
  </g>
 </g>
</svg>
